<svg style="display: none" xmlns="http://www.w3.org/2000/svg" xmlns:xlink="http://www.w3.org/1999/xlink">

    <symbol id="icon-exclamation-circle" viewBox="0 0 512 512">
        <path
            d="M507.3 439.6L288 37.6c-3.2-6-7.7-10.5-13.4-14-5.7-3.4-12-5-18.5-5s-12.8 1.7-18.5 5c-5.7 3.4-10 8-13.4 14L4.8 439.6c-6.6 12-6.4 23.9.5 36 3.2 5.5 7.6 9.8 13.2 13 5.6 3.2 11.6 4.8 18 4.8h438.5c6.5 0 12.5-1.6 18-4.8 5.6-3.2 10-7.6 13.2-13 7.0-12 7.2-23.9.5-36zm-214.6-28.5c0 2.6-1 4.8-2.7 6.7-1.8 1.8-4 2.7-6.4 2.7h-54.8c-2.4 0-4.6-.9-6.4-2.7-1.8-1.8-2.7-4-2.7-6.7v-54.2c0-2.6.9-4.8 2.7-6.7 1.8-1.8 3.9-2.7 6.4-2.7h54.8c2.4 0 4.6.8 6.4 2.7 1.8 1.8 2.7 4 2.7 6.7v54.2h.0zm-.5-106.7c-.2 1.9-1 3.4-3 4.7-1.8 1.2-4 1.8-6.7 1.8h-52.8c-2.6 0-4.9-.6-6.8-1.8-1.9-1.2-2.8-2.8-2.8-4.7l-4.8-130.4c0-2.6.9-4.6 2.8-6 2.4-2 4.7-3 6.8-3h62.8c2 0 4.3 1 6.8 3 2 1.3 2.8 3 2.8 5.4-5 131z" />
    </symbol>
    <symbol id="icon-eye" viewBox="0 0 456 456">
        <path
            d="M449 218.4c-.9-1-23-29-61-56.8-50.7-37.2-105.8-57-159.5-57-53.6 0-108.8 19.7-159.5 57-38 27.8-60 55.6-61 56.81L0 228.3l7.8 9.9c.9 1 23 29 61 56.8 50.7 37.2 105.8 57 159.5 57 53.6 0 108.8-19.7 159.5-57 37.9-27.8 60-55.6 61-56.8l7.8-9.9-7.8-9.9zm-220.5 96.5c-47.7 0-86.6-38.8-86.6-86.6 0-7.5.9-14.7 2.7-21.6l-19.7-3.3a106.4 106.4 0 00-3 25c0 30.8 13 58.7 34.2 78-27-10-50-24-67.4-36.7-21.5-15.7-37.6-31.6-46.8-41.4 9-9.8 25.3-25.7 46.8-41.4 17.3-12.6 40.3-26.7 67.4-36.7l13.2 15c15.5-14.5 36.3-23.4 59-23.4 47.7 0 86.6 38.8 86.6 86.6s-38.8 86.6-86.6 86.6zm139.8-45c-17.4 12.7-40.3 26.7-67.4 36.7 21-19.4 34.2-47.3 34.2-78s-13-58.7-34.2-78c27 10 50 24 67.4 36.7 21.5 15.7 37.6 31.6 46.8 41.4-9.2 9.8-25.3 25.7-46.8 41.5z" />
        <path
            d="M173 211.5a57.6 57.6 0 00-2.5 16.8c0 31.8 25.8 57.6 57.6 57.6 31.8 0 57.6-25.8 57.6-57.6s-25.8-57.6-57.6-57.6c-15.5 0-29.5 6-40 16l28.4 32-43.6-7.3z" />
    </symbol>
    <symbol id="icon-download" viewBox="0 0 471 471">
        <path
            d="M457.7 230c-7.5 0-13.5 6-13.5 13.5v122.8c0 33.4-27.2 60.5-60.5 60.5H87.5c-33.4 0-60.5-27.2-60.5-60.5v-124.8c0-7.5-6-13.5-13.5-13.5s-13.5 6-13.5 13.5v124.8c0 48.3 39.3 87.5 87.5 87.5h296.2c48.3 0 87.5-39.3 87.5-87.5v-122.8c0-7.4-6-13.5-13.5-13.5z" />
        <path
            d="M226 346.75c2.6 2.6 6 4 9.5 4s7-1.3 9.5-4l85.8-85.8c5.3-5.3 5.3-13.8 0-19-5.3-5.3-13.8-5.3-19 0l-62.7 62.8V30.75c0-7.5-6-13.5-13.5-13.5s-13.5 6-13.5 13.5v273.9l-62.8-62.8c-5.3-5.3-13.8-5.3-19 0-5.3 5.3-5.3 13.8 0 19l85.9 85.8z" />
    </symbol>
    <symbol id="icon-archive" viewBox="0 0 60 60">
        <path
            d="M60 8.3c0-.199-.052-.382-.131-.551a1.1 1.1 0 00-.254-.579L53.46 0H6.54L.384 7.182a1.094 1.094 0 00-.253.578A1.3 1.3 0 000 8.3V19h3v41h54V19h3V8.311zM7.46 2h45l4.3 5H3.174L7.4 2zM55 58H5V19h50v39zm3-41H2V9h56v8z" />
        <path d="M42 23H18v10h24V23zm-2 8H20v-6h20v6zM45 38H15v14h30V38zm-2 12H17V40h26v10z" />
        <path
            d="M22 48h5a1 1 0 100-2h-5a1 1 0 100 2zM27 44h11a1 1 0 100-2H27a1 1 0 100 2zM22 44c.26 0 .52-.11.71-.29.18-.19.29-.45.29-.71 0-.261-.11-.521-.29-.71-.38-.37-1.04-.37-1.42 0-.18.189-.29.449-.29.71 0 .27.11.52.29.71.19.18.44.29.71.29zM31.29 46.2c-.18.1-.2.4-.2.7 0 .2.1.5.3.7.2.2.4.2.7.2.2 0 .5-.1.7-.3.2-.2.3-.4.3-.7 0-.2-.1-.5-.3-.7-.4-.4-1-.4-1.4 0zM38 46h-1a1 1 0 100 2h1a1 1 0 100-2z" />
    </symbol>

    <symbol id="icon-npm" viewBox="0 0 32 32">
        <path
            d="M 0 10 L 0 21 L 9 21 L 9 23 L 16 23 L 16 21 L 32 21 L 32 10 L 0 10 z M 1.7 11.7 L 8.8 11.7 L 8.8 11.7 L 8.8 19.4 L 7 19.4 L 7 13.5 L 5.3 13.5 L 5.3 19.4 L 1.7 19.4 L 1.7 11.7 z M 10.6 11.7 L 17.7 11.7 L 17.7 11.7 L 17.7 19.4 L 14.2 19.4 L 14.2 21.2 L 10.6 21.2 L 10.6 11.7 z M 19.5 11.7 L 30.2 11.7 L 30.2 11.7 L 30.2 19.4 L 28.4 19.4 L 28.4 13.5 L 26.6 13.5 L 26.6 19.4 L 24.8 19.4 L 24.8 13.5 L 23 13.5 L 23 19.4 L 19.5 19.4 L 19.5 11.7 z M 14.2 13.5 L 14.2 17.6 L 16 17.6 L 16 13.5 L 14.2 13.5 z">
        </path>
    </symbol>
    <symbol id="icon-nuget" viewBox="0 0 32 32">
        <path
            d="M 6 3 C 4.3 3 3 4.3 3 6 C 3 7.6 4.3 9 6 9 C 7.6 9 9 7.6 9 6 C 9 4.3 7.6 3 6 3 z M 6 5 C 6.5 5 7 5.4 7 6 C 7 6.5 6.5 7 6 7 C 5.4 7 5 6.5 5 6 C 5 5.4 5.4 5 6 5 z M 14.7 7 C 10.4 7 7 10.4 7 14.7 L 7 21.2 C 7 25.5 10.4 29 14.7 29 L 21.2 29 C 25.5 29 29 25.5 29 21.2 L 29 14.7 C 29 10.4 25.5 7 21.2 7 L 14.7 7 z M 14.7 9 L 21.2 9 C 24.4 9 27 11.5 27 14.7 L 27 21.2 C 27 24.4 24.4 27 21.2 27 L 14.7 27 C 11.5 27 9 24.4 9 21.29 L 9 14.7 C 9 11.5 11.5 9 14.7 9 z M 14 11 C 12.3 11 11 12.3 11 14 C 11 15.6 12.3 17 14 17 C 15.6 17 17 15.6 17 14 C 17 12.3 15.6 11 14 11 z M 14 13 C 14.5 13 15 13.4 15 14 C 15 14.5 14.5 15 14 15 C 13.4 15 13 14.5 13 14 C 13 13.4 13.4 13 14 13 z M 20.5 16 C 18 16 16 18.0 16 20.5 C 16 22.9 18 25 20.5 25 C 22.9 25 25 22.9 25 20.5 C 25 18 22.9 16 20.5 16 z M 20.5 18 C 21.8 18 23 19 23 20.5 C 23 21.8 21.8 23 20.5 23 C 19 23 18 21.8 18 20.5 C 18 19 19 18 20.5 18 z">
        </path>
    </symbol>
    <symbol id="icon-resume" viewBox="0 0 512 512">
        <path
            d="m414 148.7c5.5 0 10-4.4 10-10v-108.7c0-16.5-13.4-30-30-30h-364c-16.5 0-30 13.4-30 30v452c0 16.5 13.4 30 30 30h364c16.5 0 30-13.458 30-30v-73.6c0-5.5-4.4-10-10-10s-10 4.4-10 10v73.7c0 5.5-4.4 10-10 10h-364c-5.5 0-10-4.4-10-10v-452c0-5.5 4.4-10 10-10h364c5.5 0 10 4.5 10 10v108.7c0 5.5 4.4 10 10 10z" />
        <path
            d="m212 54c-50.7 0-92 41.2-92 92 0 26.3 11 50 28.8 66.8 0.3 0.3 0.6 0.7 1 1 16.3 15 38 24 62 24s45.6-9 62-24c0.387-0.3 0.7-0.6 1-1 17.7-16.7 28.8-40.5 28.8-66.8 0-50.7-41.2-92-92-92zm0 164c-16.3 0-31.4-5.4-43.5-14.6 8.8-15.5 25.2-25.3 43.5-25.3s34.7 9.7 43.5 25.3c-12 9.1-27.1 14.6-43.5 14.6zm-16-76v-6.5c0-8.8 7-16 16-16s16 7 16 16v6.5c0 8.8-7 16-16 16s-16-7-16-16zm73.9 46.6c-7.3-11-17.6-19.4-29.5-24.7 4.7-6 7.5-13.7 7.5-21.9v-6.5c0-19.8-16.1-36-36-36s-36 16-36 36v6.5c0 8.2 2.8 16 7.5 22-11.8 5.2-22 13.7-29.4 24.7-8.8-12-14-26.7-14-42.7 0-39.7 32.3-72 72-72s72 32.3 72 72c0 16-5.2 30-14 42.6z" />
        <path
            d="m266 438h-54c-5.5 0-10 4.4-10 10s4.4 10 10 10h54c5.5 0 10-4.477 10-10s-4.4-10-10-10z" />
        <path
            d="m266 382h-142c-5.5 0-10 4.4-10 10s4.4 10 10 10h142c5.5 0 10-4.477 10-10s-4.4-10-10-10z" />
        <path
            d="m266 326h-142c-5.5 0-10 4.4-10 10s4.4 10 10 10h142c5.5 0 10-4.477 10-10s-4.4-10-10-10z" />
        <path
            d="m88 272c-1-1-4-3-7-2-2 0-5 1-7 2-1 1-2 4-2 7s1 5 2 7c1 1 4 2 7 2 2 0 5-1 7-3 1-1 3-4 3-7s-1-5-3-7z" />
        <path
            d="m88 328c-1-1-4-3-7-2-2 0-5 1-7 2-1 1-2 4-2 7s1 5 2 7c1 1 4 2 7 2 2 0 5-1 7-3 1-1 3-4 3-7s-1-5-3-7z" />
        <path
            d="m88 384c-1-2-4-3-7-3-2 0-5 1-7 3-1 1-3 4-3 7s1 5 3 7c1 1 4 3 7 3 2 0 5-1 7-3 1-1 3-4 3-7s-1-5-2-7z" />
        <path
            d="m266 270h-142c-5 0-10 4-10 10s4 10 10 10h142c5 0 10-4 10-10s-4-10-10-10z" />
        <path
            d="m491 130.3c-9.7-5.6-21-7-31.8-4.2-10.8 2.9-19.9 9.8-25.5 19.5l-126 218c-0.6 1.1-1 2.5-1.2 3.8l-8.8 79.3c-0.4 4 1.5 7.7 5 9.7 1.5 0.8 3.2 1.3 4 1.3 2 0 4.1-0.6 6-2l64.2-47.3c1-0.8 2-1.8 2.7-3l126-218c11.5-20 4.6-45.8-15.3-57.3zm-171 296 4.6-41.4 29 16.7-33.5 24.7zm48-39.4-38-22 101-174.9 38 22-100.9 174.9zm120.8-209.3-9.8 17-38-22 10-17c3-5 7.6-8.7 13.3-10.2 5.6-1.5 11.6-0.7 16.6 2.1 5 2.9 8.7 7.6 10.2 13.3s0.7 11.6-2 16z" />
    </symbol>
    <symbol id="icon-changelog" viewBox="0 0 465.2 465.2">
        <path
            d="m279.5 423.7c-3.8 0.9-7.7 1.8-11.6 2.5-10 1.8-16.8 11.6-14.9 21.8 0.9 5 3.7 9 7.6 11.8 3.9 2.7 9 4 14 3 4.6-0.8 9.2-1.8 13.8-3 10-2.4 16.1-12.6 13.6-22.6-2.4-10-12.6-16.1-22.6-13.6z" />
        <path
            d="m417.8 173.05c1.3 3.9 3.8 7 6.9 9.3 4.6 3.2 10.8 4.4 16.6 2.4 9.8-3.2 15.1-13.8 11.8-23.6-1.4-4.4-3.1-8.9-4.8-13.3-3.8-9.5-14.7-14.2-24.3-10.4-9.5 3.8-14.2 14.7-10.4 24.3 1.4 3.6 2.8 7.4 4 11.1z" />
        <path
            d="m340.3 397.01c-3.3 2.1-6.7 4.2-10 6.2-8.9 5-12 16.6-6.8 25.5 1.4 2.4 3.2 4.4 5.4 6 5.7 4 13.6 4.6 20 0.9 4-2.3 8.1-4.8 12.0-7.4 8.6-5.6 10.9-17.2 5.2-25.9-5.6-8.6-17.2-10.9-25.9-5.2z" />
        <path
            d="m465 225.2c-0.4-10.3-9.1-18.3-19.4-17.9-10.3 0.4-2.3 9.1-17.9 19.4 0 3.9 0 7.9 0 11.9-0 6.4 3 12.2 7.9 15.7 2.9 2 6.4 3.3 10.3 3.4 10.3 0.2 18.8-7.9 19.1-18.2 0.1-4.7 0.06-9.4-0.1-14.1z" />
        <path
            d="m414.8 347.8c-8.2-6.2-19.9-4.5-26 3.7-2.3 3.1-4.8 6.2-7.4 9.2-6.6 7.8-5.7 19.6 2 26.3 0.44 0.4 0.9 0.7 1.3 1.0 7.8 5.5 18.6 4.2 24.9-3 3-3.6 6-7.3 8.8-11 6.2-8.2 4.5-19.9-3.7-26.1z" />
        <path
            d="m442 280.2c-9.8-3-20.3 2.4-23.4 12.2-1 3.8-2.5 7.5-4 11.3-3.1 8.1-0.1 17 6.6 22 1.2 0.8 2.6 1.6 4.1 2.2 9.6 3.6 20.4-1 24.1-10.8 1.6-4.4 3.2-9 4.6-13.4 3-9.8-2.4-20.3-12.2-23.4z" />
        <path
            d="m198 426.4c-16.72-3.002-32.759-8.114-47.968-15.244-0.18-0.094-0.341-0.201-0.53-0.287-3.584-1.687-7.162-3.494-10.63-5.382-0.012-0.014-0.034-0.023-0.053-0.031-6.363-3.504-12.573-7.381-18.606-11.628-87.972-61.97-109.12-183.96-47.15-271.93 13.476-19.122 29.784-35.075 47.965-47.719 0.224-0.156 0.448-0.311 0.67-0.468 64.067-44.144 151.06-47.119 219.09-1.757l-14.611 21.111c-4.062 5.876-1.563 10.158 5.548 9.518l63.467-5.682c7.12-0.64 11.378-6.799 9.463-13.675l-17.043-61.406c-1.908-6.884-6.793-7.708-10.859-1.833l-14.645 21.161c-49.924-33.513-109.8-46.292-169.24-35.986-5.986 1-11.8 2.3-17.7 3.7-0 8e-3 -0 0-0 0-0.2 0-0.4 0.1-0.6 0-51.2 13.1-96 43-127.8 85.7-0.2 0.3-0.5 0.6-0.8 1-1 1.4-2 2.9-3.1 4.3-1.6 2.4-3.3 4.8-4.9 7.3-0.2 0.3-0.3 0.6-0.5 0.9-26.3 40.8-39 88-36.8 136 5e-3 0-4e-3 0.3 0 0.5 0.2 4.7 0.6 9.4 1 14.1 0 0.3 0 0.5 0.1 0.9 0.5 4.7 1 9.4 2 14 8.3 48 31 91.4 65 125 0 0 0 0 0.2 0 0 0 0 0 0 0 9 9 19 17.3 29.8 24.9 28 19.7 59.2 32.7 92.7 38.8 10 1.8 19.8-5 21.7-15 1.8-10-4.9-19.9-15-21.7z" />
        <path
            d="m221.12 83.198c-8.363 0-15.137 6.78-15.137 15.131v150.75l137.87 71.271c2.219 1 4.5 1.7 6.9 1.7 5.4 0 10.765-2.982 13.454-8.185 3.835-7.426 0.933-16.549-6.493-20.384l-121.51-62.818v-132.32c-1e-3 -8.351-6.767-15.131-15.12-15.131z" />
    </symbol>
    <symbol id="icon-linkedin" viewBox="0 0 438.54 438.54">
        <rect x="5.424" y="145.9" width="94.216" height="282.93" />
        <path
            d="m408.84 171.74c-19.791-21.604-45.967-32.408-78.512-32.408-11.991 0-22.891 1.475-32.695 4.427-9.801 2.95-18.079 7.089-24.838 12.419-6.755 5.33-12.135 10.278-16.129 14.844-3.798 4.337-7.512 9.389-11.136 15.104v-40.232h-93.935l0.288 13.706c0.193 9.139 0.288 37.307 0.288 84.508 0 47.205-0.19 108.78-0.572 184.72h93.931v-157.89c0-9.705 1.041-17.412 3.139-23.127 4-9.712 10.037-17.843 18.131-24.407 8.093-6.572 18.13-9.855 30.125-9.855 16.364 0 28.407 5.662 36.117 16.987 7.707 11.324 11.561 26.98 11.561 46.966v151.31h93.931v-162.16c-7e-3 -41.688-9.897-73.328-29.694-94.925z" />
        <path
            d="M53.103,9.708c-15.796,0-28.595,4.619-38.4,13.848C4.899,32.787,0,44.441,0,58.529c0,13.891,4.758,25.505,14.275,34.829    c9.514,9.325,22.078,13.99,37.685,13.99h0.571c15.99,0,28.887-4.661,38.688-13.99c9.801-9.324,14.606-20.934,14.417-34.829    c-0.19-14.087-5.047-25.742-14.561-34.973C81.562,14.323,68.9,9.708,53.103,9.708z" />
    </symbol>
    <symbol id="icon-medium" viewBox="0 0 393.541 393.541">
        <path style="fill:#00FD8D;"
            d="M384.045,363.079L262.84,304.812L261.927,40.68c-0.021-6.166,6.416-10.229,11.973-7.557
              l114.908,55.256c2.893,1.391,4.733,4.318,4.733,7.528v261.201C393.54,361.989,388.443,365.194,384.045,363.079z" />
        <path style="fill:#00E470;" d="M262.84,304.812L131.66,241.74L257.948,33.818c2.231-3.673,6.886-5.054,10.759-3.192l116.514,56.029
              c4.454,2.142,6.085,7.661,3.51,11.879L262.84,304.812z" />
        <path style="fill:#00C967;" d="M262.84,304.812L131.66,241.74L11.421,45.942c-3.35-5.455,2.479-11.914,8.248-9.14L131.66,90.655
              L262.84,304.812z" />
        <path style="fill:#00AD6C;"
            d="M122.164,363.078l-118.41-56.94C1.459,305.034,0,302.713,0,300.167V37.548
              c0-4.726,4.937-7.831,9.197-5.782L131.66,90.655v266.452C131.66,361.988,126.562,365.193,122.164,363.078z" />
    </symbol>
    <symbol id="icon-github" viewBox="0 0 256 250">
        <path
            d="M128.00106,0 C57.3172926,0 0,57.3066942 0,128.00106 C0,184.555281 36.6761997,232.535542 87.534937,249.460899 C93.9320223,250.645779 96.280588,246.684165 96.280588,243.303333 C96.280588,240.251045 96.1618878,230.167899 96.106777,219.472176 C60.4967585,227.215235 52.9826207,204.369712 52.9826207,204.369712 C47.1599584,189.574598 38.770408,185.640538 38.770408,185.640538 C27.1568785,177.696113 39.6458206,177.859325 39.6458206,177.859325 C52.4993419,178.762293 59.267365,191.04987 59.267365,191.04987 C70.6837675,210.618423 89.2115753,204.961093 96.5158685,201.690482 C97.6647155,193.417512 100.981959,187.77078 104.642583,184.574357 C76.211799,181.33766 46.324819,170.362144 46.324819,121.315702 C46.324819,107.340889 51.3250588,95.9223682 59.5132437,86.9583937 C58.1842268,83.7344152 53.8029229,70.715562 60.7532354,53.0843636 C60.7532354,53.0843636 71.5019501,49.6441813 95.9626412,66.2049595 C106.172967,63.368876 117.123047,61.9465949 128.00106,61.8978432 C138.879073,61.9465949 149.837632,63.368876 160.067033,66.2049595 C184.49805,49.6441813 195.231926,53.0843636 195.231926,53.0843636 C202.199197,70.715562 197.815773,83.7344152 196.486756,86.9583937 C204.694018,95.9223682 209.660343,107.340889 209.660343,121.315702 C209.660343,170.478725 179.716133,181.303747 151.213281,184.472614 C155.80443,188.444828 159.895342,196.234518 159.895342,208.176593 C159.895342,225.303317 159.746968,239.087361 159.746968,243.303333 C159.746968,246.709601 162.05102,250.70089 168.53925,249.443941 C219.370432,232.499507 256,184.536204 256,128.00106 C256,57.3066942 198.691187,0 128.00106,0 Z M47.9405593,182.340212 C47.6586465,182.976105 46.6581745,183.166873 45.7467277,182.730227 C44.8183235,182.312656 44.2968914,181.445722 44.5978808,180.80771 C44.8734344,180.152739 45.876026,179.97045 46.8023103,180.409216 C47.7328342,180.826786 48.2627451,181.702199 47.9405593,182.340212 Z M54.2367892,187.958254 C53.6263318,188.524199 52.4329723,188.261363 51.6232682,187.366874 C50.7860088,186.474504 50.6291553,185.281144 51.2480912,184.70672 C51.8776254,184.140775 53.0349512,184.405731 53.8743302,185.298101 C54.7115892,186.201069 54.8748019,187.38595 54.2367892,187.958254 Z M58.5562413,195.146347 C57.7719732,195.691096 56.4895886,195.180261 55.6968417,194.042013 C54.9125733,192.903764 54.9125733,191.538713 55.713799,190.991845 C56.5086651,190.444977 57.7719732,190.936735 58.5753181,192.066505 C59.3574669,193.22383 59.3574669,194.58888 58.5562413,195.146347 Z M65.8613592,203.471174 C65.1597571,204.244846 63.6654083,204.03712 62.5716717,202.981538 C61.4524999,201.94927 61.1409122,200.484596 61.8446341,199.710926 C62.5547146,198.935137 64.0575422,199.15346 65.1597571,200.200564 C66.2704506,201.230712 66.6095936,202.705984 65.8613592,203.471174 Z M75.3025151,206.281542 C74.9930474,207.284134 73.553809,207.739857 72.1039724,207.313809 C70.6562556,206.875043 69.7087748,205.700761 70.0012857,204.687571 C70.302275,203.678621 71.7478721,203.20382 73.2083069,203.659543 C74.6539041,204.09619 75.6035048,205.261994 75.3025151,206.281542 Z M86.046947,207.473627 C86.0829806,208.529209 84.85,209.404622 83.3316829,209.4237 C81.8013,209.457614 80.563428,208.603398 80.5464708,207.564772 C80.5464708,206.498591 81.7483088,205.631657 83.2786917,205.606221 C84.8005962,205.576546 86.046947,206.424403 86.046947,207.473627 Z M96.6021471,207.069023 C96.7844366,208.099171 95.7267341,209.156872 94.215428,209.438785 C92.7295577,209.710099 91.3539086,209.074206 91.1652603,208.052538 C90.9808515,206.996955 92.0576306,205.939253 93.5413813,205.66582 C95.054807,205.402984 96.4092596,206.021919 96.6021471,207.069023 Z"
            fill="#161614"></path>
    </symbol>
    <symbol id="icon-stackoverflow" viewBox="0 0 256 304">
        <polygon fill="#BCBBBB"
            points="216.329708 276.187929 216.329708 194.976776 243.28341 194.976776 243.28341 303.14163 0 303.14163 0 194.976776 26.9537015 194.976776 26.9537015 276.187929">
        </polygon>
        <path
            d="M56.7077876,187.275718 L189.025959,214.929516 L194.626728,188.325863 L62.3085568,160.672065 L56.7077876,187.275718 L56.7077876,187.275718 Z M74.2101912,124.267065 L196.727016,181.324901 L207.928555,156.821536 L85.4117295,99.4136524 L74.2101912,124.267065 Z M108.164854,64.0587971 L212.129132,150.520671 L229.281487,129.867835 L125.31721,43.4059609 L108.164854,64.0587971 L108.164854,64.0587971 Z M175.374084,0 L153.671104,16.1022113 L234.18216,124.617114 L255.88514,108.514902 L175.374084,0 Z M53.9074031,248.884179 L189.025959,248.884179 L189.025959,221.930478 L53.9074031,221.930478 L53.9074031,248.884179 Z"
            fill="#F48023"></path>
    </symbol>
    
</svg>
