<svg style="display: none" xmlns="http://www.w3.org/2000/svg" xmlns:xlink="http://www.w3.org/1999/xlink">

    <symbol id="icon-exclamation-circle" viewBox="0 0 512 512">
        <path
            d="M507.345 439.683L288.084 37.688c-3.237-5.899-7.71-10.564-13.429-13.988-5.705-3.427-11.893-5.142-18.554-5.142s-12.85 1.718-18.558 5.142c-5.708 3.424-10.184 8.089-13.418 13.988L4.859 439.683c-6.663 11.998-6.473 23.989.57 35.98 3.239 5.517 7.664 9.897 13.278 13.128 5.618 3.237 11.66 4.859 18.132 4.859h438.529c6.479 0 12.519-1.622 18.134-4.859 5.62-3.23 10.038-7.611 13.278-13.128 7.043-11.998 7.235-23.982.565-35.98zm-214.69-28.551c0 2.662-.91 4.897-2.71 6.704-1.807 1.811-3.949 2.71-6.427 2.71h-54.816c-2.474 0-4.616-.899-6.423-2.71-1.809-1.807-2.713-4.042-2.713-6.704v-54.248c0-2.662.905-4.897 2.713-6.704 1.807-1.811 3.946-2.71 6.423-2.71h54.812c2.479 0 4.62.899 6.428 2.71 1.803 1.807 2.71 4.042 2.71 6.704v54.248h.003zm-.567-106.775c-.198 1.902-1.198 3.47-3.001 4.709-1.811 1.238-4.046 1.854-6.711 1.854h-52.82c-2.663 0-4.947-.62-6.849-1.854-1.908-1.243-2.858-2.807-2.858-4.716l-4.853-130.47c0-2.667.953-4.665 2.856-5.996 2.474-2.093 4.758-3.14 6.854-3.14h62.809c2.098 0 4.38 1.043 6.854 3.14 1.902 1.331 2.851 3.14 2.851 5.424l-5.132 131.049z" />
    </symbol>
    <symbol id="icon-eye" viewBox="0 0 456 456">
        <path
            d="M448.947 218.475c-.922-1.168-23.055-28.933-61-56.81-50.705-37.253-105.877-56.944-159.551-56.944-53.672 0-108.844 19.691-159.551 56.944-37.944 27.876-60.077 55.642-61 56.81L0 228.397l7.846 9.923c.923 1.168 23.056 28.934 61 56.811 50.707 37.252 105.879 56.943 159.551 56.943 53.673 0 108.845-19.691 159.55-56.943 37.945-27.877 60.078-55.643 61-56.811l7.848-9.923-7.848-9.922zm-220.551 96.564c-47.774 0-86.642-38.867-86.642-86.642 0-7.485.954-14.751 2.747-21.684l-19.781-3.329a106.44 106.4 0 00-2.966 25.013c0 30.86 13.182 58.696 34.204 78.187-27.061-9.996-50.072-24.023-67.439-36.709-21.516-15.715-37.641-31.609-46.834-41.478 9.197-9.872 25.32-25.764 46.834-41.478 17.367-12.686 40.379-26.713 67.439-36.71l13.27 14.958c15.498-14.512 36.312-23.412 59.168-23.412 47.774 0 86.641 38.867 86.641 86.642s-38.867 86.642-86.641 86.642zm139.877-45.164c-17.369 12.686-40.379 26.713-67.439 36.709 21.021-19.49 34.203-47.326 34.203-78.188s-13.182-58.697-34.203-78.188c27.061 9.9 50 24 67.4 36.7 21.5 15.7 37.6 31.6 46.8 41.477-9.197 9.874-25.32 25.767-46.834 41.48z" />
        <path
            d="M173.261 211.555a57.616 57.616 0 00-2.507 16.843c0 31.834 25.807 57.642 57.642 57.642 31.834 0 57.641-25.807 57.641-57.642s-25.807-57.642-57.641-57.642c-15.506 0-29.571 6.134-39.932 16.094l28.432 32.048-43.635-7.343z" />
    </symbol>
    <symbol id="icon-download" viewBox="0 0 471.2 471.2">
        <path
            d="M457.7 230.15c-7.5 0-13.5 6-13.5 13.5v122.8c0 33.4-27.2 60.5-60.5 60.5H87.5c-33.4 0-60.5-27.2-60.5-60.5v-124.8c0-7.5-6-13.5-13.5-13.5s-13.5 6-13.5 13.5v124.8c0 48.3 39.3 87.5 87.5 87.5h296.2c48.3 0 87.5-39.3 87.5-87.5v-122.8c0-7.4-6-13.5-13.5-13.5z" />
        <path
            d="M226.1 346.75c2.6 2.6 6.1 4 9.5 4s6.9-1.3 9.5-4l85.8-85.8c5.3-5.3 5.3-13.8 0-19.1-5.3-5.3-13.8-5.3-19.1 0l-62.7 62.8V30.75c0-7.5-6-13.5-13.5-13.5s-13.5 6-13.5 13.5v273.9l-62.8-62.8c-5.3-5.3-13.8-5.3-19.1 0-5.3 5.3-5.3 13.8 0 19.1l85.9 85.8z" />
    </symbol>
    <symbol id="icon-archive" viewBox="0 0 60 60">

        <path
            d="M60 8.311c0-.199-.052-.382-.131-.551a1.113 1.113 0 00-.254-.579L53.46 0H6.54L.384 7.182a1.094 1.094 0 00-.253.578A1.291 1.291 0 000 8.311V19h3v41h54V19h3V8.311zM7.46 2h45.08l4.286 5H3.174L7.46 2zM55 58H5V19h50v39zm3-41H2V9h56v8z" />
        <path d="M42 23H18v10h24V23zm-2 8H20v-6h20v6zM45 38H15v14h30V38zm-2 12H17V40h26v10z" />
        <path
            d="M22 48h5a1 1 0 100-2h-5a1 1 0 100 2zM27 44h11a1 1 0 100-2H27a1 1 0 100 2zM22 44c.26 0 .52-.11.71-.29.18-.19.29-.45.29-.71 0-.261-.11-.521-.29-.71-.38-.37-1.04-.37-1.42 0-.18.189-.29.449-.29.71 0 .27.11.52.29.71.19.18.44.29.71.29zM31.29 46.29c-.18.189-.29.449-.29.71 0 .26.11.52.29.71.19.18.45.29.71.29.26 0 .52-.11.71-.29.18-.19.29-.45.29-.71 0-.261-.11-.521-.29-.71-.37-.37-1.05-.37-1.42 0zM38 46h-1a1 1 0 100 2h1a1 1 0 100-2z" />
    </symbol>

    <symbol id="icon-npm" viewBox="0 0 32 32">
        <path
            d="M 0 10 L 0 21 L 9 21 L 9 23 L 16 23 L 16 21 L 32 21 L 32 10 L 0 10 z M 1.7 11.7 L 8.8 11.7 L 8.8 11.7 L 8.8 19.4 L 7.1 19.4 L 7.1 13.5 L 5.3 13.5 L 5.3 19.4 L 1.7 19.4 L 1.7 11.7 z M 10.6 11.7 L 17.7 11.7 L 17.7 11.7 L 17.7 19.4 L 14.2 19.4 L 14.2 21.2 L 10.6 21.2 L 10.6 11.7 z M 19.5 11.7 L 30.2 11.7 L 30.2 11.7 L 30.2 19.4 L 28.4 19.4 L 28.4 13.5 L 26.6 13.5 L 26.6 19.4 L 24.8 19.4 L 24.8 13.5 L 23.1 13.5 L 23.1 19.4 L 19.5 19.4 L 19.5 11.7 z M 14.2 13.5 L 14.2 17.6 L 16 17.6 L 16 13.5 L 14.2 13.5 z">
        </path>
    </symbol>
    <symbol id="icon-nuget" viewBox="0 0 32 32">
        <path
            d="M 6 3 C 4.3 3 3 4.3 3 6 C 3 7.6 4.3 9 6 9 C 7.6 9 9 7.6 9 6 C 9 4.3 7.6 3 6 3 z M 6 5 C 6.5 5 7 5.4 7 6 C 7 6.5 6.5 7 6 7 C 5.4 7 5 6.5 5 6 C 5 5.4 5.4 5 6 5 z M 14.7 7 C 10.4 7 7 10.4 7 14.7 L 7 21.2 C 7 25.5 10.4 29 14.7 29 L 21.2 29 C 25.5 29 29 25.5 29 21.2 L 29 14.7 C 29 10.4 25.5 7 21.2 7 L 14.7 7 z M 14.7 9 L 21.2 9 C 24.4 9 27 11.5 27 14.7 L 27 21.2 C 27 24.4 24.4 27 21.2 27 L 14.7 27 C 11.5 27 9 24.4 9 21.29 L 9 14.7 C 9 11.5 11.5 9 14.7 9 z M 14 11 C 12.3 11 11 12.3 11 14 C 11 15.6 12.3 17 14 17 C 15.6 17 17 15.6 17 14 C 17 12.3 15.6 11 14 11 z M 14 13 C 14.5 13 15 13.4 15 14 C 15 14.5 14.5 15 14 15 C 13.4 15 13 14.5 13 14 C 13 13.4 13.4 13 14 13 z M 20.5 16 C 18 16 16 18.0 16 20.5 C 16 22.9 18 25 20.5 25 C 22.9 25 25 22.9 25 20.5 C 25 18 22.9 16 20.5 16 z M 20.5 18 C 21.8 18 23 19.1 23 20.5 C 23 21.8 21.8 23 20.5 23 C 19.1 23 18 21.8 18 20.5 C 18 19.1 19.1 18 20.5 18 z">
        </path>
    </symbol>
    <symbol id="icon-resume" viewBox="0 0 512 512">
        <path
            d="m414.01 148.75c5.522 0 10-4.477 10-10v-108.75c0-16.542-13.458-30-30-30h-364c-16.542 0-30 13.458-30 30v452c0 16.542 13.458 30 30 30h364c16.542 0 30-13.458 30-30v-73.672c0-5.523-4.478-10-10-10s-10 4.477-10 10v73.672c0 5.514-4.486 10-10 10h-364c-5.514 0-10-4.486-10-10v-452c0-5.514 4.486-10 10-10h364c5.514 0 10 4.486 10 10v108.75c0 5.523 4.478 10 10 10z" />
        <path
            d="m212.01 54c-50.729 0-92 41.271-92 92 0 26.317 11.11 50.085 28.882 66.869 0.333 0.356 0.687 0.693 1.074 1 16.371 14.979 38.158 24.13 62.043 24.13s45.672-9.152 62.043-24.13c0.387-0.307 0.741-0.645 1.074-1 17.774-16.784 28.884-40.552 28.884-66.869 0-50.729-41.271-92-92-92zm0 164c-16.329 0-31.399-5.472-43.491-14.668 8.789-15.585 25.19-25.332 43.491-25.332s34.702 9.747 43.491 25.332c-12.093 9.196-27.162 14.668-43.491 14.668zm-16-76v-6.5c0-8.822 7.178-16 16-16s16 7.178 16 16v6.5c0 8.822-7.178 16-16 16s-16-7.178-16-16zm73.94 46.683c-7.375-10.938-17.596-19.445-29.463-24.697 4.71-6.087 7.523-13.712 7.523-21.986v-6.5c0-19.851-16.149-36-36-36s-36 16.149-36 36v6.5c0 8.274 2.813 15.899 7.523 21.986-11.867 5.252-22.088 13.759-29.463 24.697-8.829-11.953-14.06-26.716-14.06-42.683 0-39.701 32.299-72 72-72s72 32.299 72 72c0 15.967-5.231 30.73-14.06 42.683z" />
        <path
            d="m266.01 438h-54c-5.522 0-10 4.477-10 10s4.478 10 10 10h54c5.522 0 10-4.477 10-10s-4.478-10-10-10z" />
        <path
            d="m266.01 382h-142c-5.522 0-10 4.477-10 10s4.478 10 10 10h142c5.522 0 10-4.477 10-10s-4.478-10-10-10z" />
        <path
            d="m266.01 326h-142c-5.522 0-10 4.477-10 10s4.478 10 10 10h142c5.522 0 10-4.477 10-10s-4.478-10-10-10z" />
        <path
            d="m88.366 272.93c-1.859-1.86-4.439-2.93-7.079-2.93-2.631 0-5.211 1.07-7.07 2.93-1.86 1.86-2.93 4.44-2.93 7.07s1.069 5.21 2.93 7.07c1.87 1.86 4.439 2.93 7.07 2.93 2.64 0 5.21-1.07 7.079-2.93 1.86-1.86 2.931-4.44 2.931-7.07s-1.07-5.21-2.931-7.07z" />
        <path
            d="m88.366 328.93c-1.869-1.86-4.439-2.93-7.079-2.93-2.631 0-5.2 1.07-7.07 2.93-1.86 1.86-2.93 4.44-2.93 7.07s1.069 5.21 2.93 7.07c1.87 1.86 4.439 2.93 7.07 2.93 2.64 0 5.21-1.07 7.079-2.93 1.86-1.86 2.931-4.44 2.931-7.07s-1.07-5.21-2.931-7.07z" />
        <path
            d="m88.366 384.93c-1.869-1.86-4.439-2.93-7.079-2.93-2.631 0-5.2 1.07-7.07 2.93-1.86 1.86-2.93 4.44-2.93 7.07s1.069 5.21 2.93 7.07c1.859 1.86 4.439 2.93 7.07 2.93 2.64 0 5.22-1.07 7.079-2.93 1.86-1.86 2.931-4.44 2.931-7.07s-1.07-5.21-2.931-7.07z" />
        <path
            d="m266.01 270h-142c-5.522 0-10 4.477-10 10s4.478 10 10 10h142c5.522 0 10-4.477 10-10s-4.478-10-10-10z" />
        <path
            d="m491 130.32c-9.715-5.609-21.033-7.099-31.871-4.196-10.836 2.904-19.894 9.854-25.502 19.569l-125.84 217.96c-0.689 1.195-1.125 2.52-1.278 3.891l-8.858 79.344c-0.44 3.948 1.498 7.783 4.938 9.77 1.553 0.896 3.278 1.34 4.999 1.34 2.092 0 4.176-0.655 5.931-1.948l64.284-47.344c1.111-0.818 2.041-1.857 2.73-3.052l125.84-217.96c11.58-20.056 4.684-45.794-15.372-57.374zm-170.94 296.07 4.626-41.432 28.942 16.71-33.568 24.722zm48.15-39.398-38.105-22 100.98-174.91 38.105 22-100.98 174.91zm120.84-209.3-9.857 17.073-38.105-22 9.857-17.073c2.938-5.089 7.682-8.729 13.358-10.25 5.678-1.522 11.606-0.74 16.694 2.198 5.089 2.938 8.729 7.682 10.25 13.358s0.741 11.605-2.197 16.694z" />
    </symbol>
    <symbol id="icon-changelog" viewBox="0 0 465.2 465.2">
        <path
            d="m279.59 423.71c-3.836 0.956-7.747 1.805-11.629 2.52-10.148 1.887-16.857 11.647-14.98 21.804 0.927 4.997 3.765 9.159 7.618 11.876 3.971 2.795 9.025 4.057 14.175 3.099 4.623-0.858 9.282-1.867 13.854-3.008 10.021-2.494 16.126-12.646 13.626-22.662-2.494-10.025-12.637-16.125-22.664-13.629z" />
        <path
            d="m417.89 173.05c1.31 3.948 3.811 7.171 6.97 9.398 4.684 3.299 10.813 4.409 16.662 2.475 9.806-3.256 15.119-13.83 11.875-23.631-1.478-4.468-3.118-8.95-4.865-13.314-3.836-9.59-14.714-14.259-24.309-10.423-9.585 3.834-14.256 14.715-10.417 24.308 1.468 3.668 2.843 7.433 4.084 11.187z" />
        <path
            d="m340.36 397.01c-3.299 2.178-6.704 4.286-10.134 6.261-8.949 5.162-12.014 16.601-6.854 25.546 1.401 2.433 3.267 4.422 5.416 5.942 5.769 4.059 13.604 4.667 20.127 0.909 4.078-2.352 8.133-4.854 12.062-7.452 8.614-5.691 10.985-17.294 5.291-25.912-5.693-8.621-17.291-10.989-25.908-5.294z" />
        <path
            d="m465 225.2c-0.4-10.3-9.1-18.3-19.4-17.9-10.3 0.4-2.3 9.1-17.9 19.4 0.1 3.9 0.1 7.9 0.1 11.9-0.1 6.4 3 12.2 7.9 15.7 2.9 2 6.4 3.3 10.3 3.4 10.3 0.2 18.8-7.9 19.1-18.2 0.1-4.7 0.06-9.4-0.1-14.1z" />
        <path
            d="m414.8 347.8c-8.2-6.2-19.9-4.5-26.1 3.7-2.3 3.1-4.8 6.2-7.4 9.2-6.6 7.8-5.7 19.6 2.1 26.3 0.44 0.4 0.9 0.7 1.3 1.0 7.8 5.5 18.6 4.2 24.9-3.1 3-3.6 6-7.3 8.8-11.1 6.2-8.2 4.5-19.9-3.7-26.1z" />
        <path
            d="m442.32 280.21c-9.855-3.09-20.35 2.396-23.438 12.251-1.182 3.765-2.492 7.548-3.906 11.253-3.105 8.156-0.13 17.13 6.69 21.939 1.251 0.879 2.629 1.624 4.126 2.19 9.649 3.682 20.454-1.159 24.132-10.812 1.679-4.405 3.237-8.906 4.646-13.382 3.085-9.857-2.397-20.349-12.25-23.439z" />
        <path
            d="m198 426.4c-16.72-3.002-32.759-8.114-47.968-15.244-0.18-0.094-0.341-0.201-0.53-0.287-3.584-1.687-7.162-3.494-10.63-5.382-0.012-0.014-0.034-0.023-0.053-0.031-6.363-3.504-12.573-7.381-18.606-11.628-87.972-61.97-109.12-183.96-47.15-271.93 13.476-19.122 29.784-35.075 47.965-47.719 0.224-0.156 0.448-0.311 0.67-0.468 64.067-44.144 151.06-47.119 219.09-1.757l-14.611 21.111c-4.062 5.876-1.563 10.158 5.548 9.518l63.467-5.682c7.12-0.64 11.378-6.799 9.463-13.675l-17.043-61.406c-1.908-6.884-6.793-7.708-10.859-1.833l-14.645 21.161c-49.924-33.513-109.8-46.292-169.24-35.986-5.986 1.036-11.888 2.304-17.709 3.78-0.045 8e-3 -0.081 0.013-0.117 0.021-0.225 0.055-0.453 0.128-0.672 0.189-51.25 13.161-95.965 43.052-127.87 85.7-0.269 0.319-0.546 0.631-0.8 0.978-1.061 1.429-2.114 2.891-3.145 4.353-1.686 2.396-3.348 4.852-4.938 7.308-0.199 0.296-0.351 0.597-0.525 0.896-26.33 40.801-39.03 87.971-36.852 135.99 5e-3 0.158-4e-3 0.317 0 0.479 0.211 4.691 0.583 9.447 1.088 14.129 0.027 0.302 0.094 0.588 0.145 0.89 0.522 4.708 1.177 9.427 1.998 14.145 8.344 48.138 31.052 91.455 65.079 125.16 0.079 0.079 0.161 0.165 0.241 0.247 0.028 0.031 0.059 0.047 0.086 0.076 9.142 9.017 19.086 17.357 29.793 24.898 28.02 19.744 59.221 32.795 92.729 38.808 10.167 1.827 19.879-4.941 21.703-15.103 1.823-10.169-4.939-19.889-15.103-21.71z" />
        <path
            d="m221.12 83.198c-8.363 0-15.137 6.78-15.137 15.131v150.75l137.87 71.271c2.219 1.1 4.5 1.7 6.9 1.7 5.4 0 10.765-2.982 13.454-8.185 3.835-7.426 0.933-16.549-6.493-20.384l-121.51-62.818v-132.32c-1e-3 -8.351-6.767-15.131-15.12-15.131z" />
    </symbol>
    <symbol id="icon-linkedin" viewBox="0 0 438.54 438.54">
        <rect x="5.424" y="145.9" width="94.216" height="282.93" />
        <path
            d="m408.84 171.74c-19.791-21.604-45.967-32.408-78.512-32.408-11.991 0-22.891 1.475-32.695 4.427-9.801 2.95-18.079 7.089-24.838 12.419-6.755 5.33-12.135 10.278-16.129 14.844-3.798 4.337-7.512 9.389-11.136 15.104v-40.232h-93.935l0.288 13.706c0.193 9.139 0.288 37.307 0.288 84.508 0 47.205-0.19 108.78-0.572 184.72h93.931v-157.89c0-9.705 1.041-17.412 3.139-23.127 4-9.712 10.037-17.843 18.131-24.407 8.093-6.572 18.13-9.855 30.125-9.855 16.364 0 28.407 5.662 36.117 16.987 7.707 11.324 11.561 26.98 11.561 46.966v151.31h93.931v-162.16c-7e-3 -41.688-9.897-73.328-29.694-94.925z" />
        <path
            d="M53.103,9.708c-15.796,0-28.595,4.619-38.4,13.848C4.899,32.787,0,44.441,0,58.529c0,13.891,4.758,25.505,14.275,34.829    c9.514,9.325,22.078,13.99,37.685,13.99h0.571c15.99,0,28.887-4.661,38.688-13.99c9.801-9.324,14.606-20.934,14.417-34.829    c-0.19-14.087-5.047-25.742-14.561-34.973C81.562,14.323,68.9,9.708,53.103,9.708z" />
    </symbol>
    <symbol id="icon-medium" viewBox="0 0 393.541 393.541">
        <path style="fill:#00FD8D;"
            d="M384.045,363.079L262.84,304.812L261.927,40.68c-0.021-6.166,6.416-10.229,11.973-7.557
              l114.908,55.256c2.893,1.391,4.733,4.318,4.733,7.528v261.201C393.54,361.989,388.443,365.194,384.045,363.079z" />
        <path style="fill:#00E470;" d="M262.84,304.812L131.66,241.74L257.948,33.818c2.231-3.673,6.886-5.054,10.759-3.192l116.514,56.029
              c4.454,2.142,6.085,7.661,3.51,11.879L262.84,304.812z" />
        <path style="fill:#00C967;" d="M262.84,304.812L131.66,241.74L11.421,45.942c-3.35-5.455,2.479-11.914,8.248-9.14L131.66,90.655
              L262.84,304.812z" />
        <path style="fill:#00AD6C;"
            d="M122.164,363.078l-118.41-56.94C1.459,305.034,0,302.713,0,300.167V37.548
              c0-4.726,4.937-7.831,9.197-5.782L131.66,90.655v266.452C131.66,361.988,126.562,365.193,122.164,363.078z" />
    </symbol>
    <symbol id="icon-github" viewBox="0 0 256 250">
        <path
            d="M128.00106,0 C57.3172926,0 0,57.3066942 0,128.00106 C0,184.555281 36.6761997,232.535542 87.534937,249.460899 C93.9320223,250.645779 96.280588,246.684165 96.280588,243.303333 C96.280588,240.251045 96.1618878,230.167899 96.106777,219.472176 C60.4967585,227.215235 52.9826207,204.369712 52.9826207,204.369712 C47.1599584,189.574598 38.770408,185.640538 38.770408,185.640538 C27.1568785,177.696113 39.6458206,177.859325 39.6458206,177.859325 C52.4993419,178.762293 59.267365,191.04987 59.267365,191.04987 C70.6837675,210.618423 89.2115753,204.961093 96.5158685,201.690482 C97.6647155,193.417512 100.981959,187.77078 104.642583,184.574357 C76.211799,181.33766 46.324819,170.362144 46.324819,121.315702 C46.324819,107.340889 51.3250588,95.9223682 59.5132437,86.9583937 C58.1842268,83.7344152 53.8029229,70.715562 60.7532354,53.0843636 C60.7532354,53.0843636 71.5019501,49.6441813 95.9626412,66.2049595 C106.172967,63.368876 117.123047,61.9465949 128.00106,61.8978432 C138.879073,61.9465949 149.837632,63.368876 160.067033,66.2049595 C184.49805,49.6441813 195.231926,53.0843636 195.231926,53.0843636 C202.199197,70.715562 197.815773,83.7344152 196.486756,86.9583937 C204.694018,95.9223682 209.660343,107.340889 209.660343,121.315702 C209.660343,170.478725 179.716133,181.303747 151.213281,184.472614 C155.80443,188.444828 159.895342,196.234518 159.895342,208.176593 C159.895342,225.303317 159.746968,239.087361 159.746968,243.303333 C159.746968,246.709601 162.05102,250.70089 168.53925,249.443941 C219.370432,232.499507 256,184.536204 256,128.00106 C256,57.3066942 198.691187,0 128.00106,0 Z M47.9405593,182.340212 C47.6586465,182.976105 46.6581745,183.166873 45.7467277,182.730227 C44.8183235,182.312656 44.2968914,181.445722 44.5978808,180.80771 C44.8734344,180.152739 45.876026,179.97045 46.8023103,180.409216 C47.7328342,180.826786 48.2627451,181.702199 47.9405593,182.340212 Z M54.2367892,187.958254 C53.6263318,188.524199 52.4329723,188.261363 51.6232682,187.366874 C50.7860088,186.474504 50.6291553,185.281144 51.2480912,184.70672 C51.8776254,184.140775 53.0349512,184.405731 53.8743302,185.298101 C54.7115892,186.201069 54.8748019,187.38595 54.2367892,187.958254 Z M58.5562413,195.146347 C57.7719732,195.691096 56.4895886,195.180261 55.6968417,194.042013 C54.9125733,192.903764 54.9125733,191.538713 55.713799,190.991845 C56.5086651,190.444977 57.7719732,190.936735 58.5753181,192.066505 C59.3574669,193.22383 59.3574669,194.58888 58.5562413,195.146347 Z M65.8613592,203.471174 C65.1597571,204.244846 63.6654083,204.03712 62.5716717,202.981538 C61.4524999,201.94927 61.1409122,200.484596 61.8446341,199.710926 C62.5547146,198.935137 64.0575422,199.15346 65.1597571,200.200564 C66.2704506,201.230712 66.6095936,202.705984 65.8613592,203.471174 Z M75.3025151,206.281542 C74.9930474,207.284134 73.553809,207.739857 72.1039724,207.313809 C70.6562556,206.875043 69.7087748,205.700761 70.0012857,204.687571 C70.302275,203.678621 71.7478721,203.20382 73.2083069,203.659543 C74.6539041,204.09619 75.6035048,205.261994 75.3025151,206.281542 Z M86.046947,207.473627 C86.0829806,208.529209 84.85,209.404622 83.3316829,209.4237 C81.8013,209.457614 80.563428,208.603398 80.5464708,207.564772 C80.5464708,206.498591 81.7483088,205.631657 83.2786917,205.606221 C84.8005962,205.576546 86.046947,206.424403 86.046947,207.473627 Z M96.6021471,207.069023 C96.7844366,208.099171 95.7267341,209.156872 94.215428,209.438785 C92.7295577,209.710099 91.3539086,209.074206 91.1652603,208.052538 C90.9808515,206.996955 92.0576306,205.939253 93.5413813,205.66582 C95.054807,205.402984 96.4092596,206.021919 96.6021471,207.069023 Z"
            fill="#161614"></path>
    </symbol>
    <symbol id="icon-stackoverflow" viewBox="0 0 256 304">
        <polygon fill="#BCBBBB"
            points="216.329708 276.187929 216.329708 194.976776 243.28341 194.976776 243.28341 303.14163 0 303.14163 0 194.976776 26.9537015 194.976776 26.9537015 276.187929">
        </polygon>
        <path
            d="M56.7077876,187.275718 L189.025959,214.929516 L194.626728,188.325863 L62.3085568,160.672065 L56.7077876,187.275718 L56.7077876,187.275718 Z M74.2101912,124.267065 L196.727016,181.324901 L207.928555,156.821536 L85.4117295,99.4136524 L74.2101912,124.267065 Z M108.164854,64.0587971 L212.129132,150.520671 L229.281487,129.867835 L125.31721,43.4059609 L108.164854,64.0587971 L108.164854,64.0587971 Z M175.374084,0 L153.671104,16.1022113 L234.18216,124.617114 L255.88514,108.514902 L175.374084,0 Z M53.9074031,248.884179 L189.025959,248.884179 L189.025959,221.930478 L53.9074031,221.930478 L53.9074031,248.884179 Z"
            fill="#F48023"></path>
    </symbol>
    
</svg>
